<svg width="33" height="33" viewBox="0 0 135 135" fill="none" xmlns="http://www.w3.org/2000/svg">
<rect x="94.1469" y="0.0284424" width="53.1496" height="135" transform="rotate(43.0404 94.1469 0.0284424)" fill="#274472"/>
<rect x="134.972" y="94.1469" width="53.1496" height="135" transform="rotate(133.04 134.972 94.1469)" fill="#274472"/>
<rect x="40.9252" width="53.1496" height="135" fill="#93CDD7"/>
<rect x="135" y="40.9252" width="53.1496" height="135" transform="rotate(90 135 40.9252)" fill="#93CDD7"/>
<path d="M67.5 90.2767L63.9678 87.0612C51.4223 75.6849 43.1398 68.1576 43.1398 58.9738C43.1398 51.4465 49.0349 45.5757 56.5379 45.5757C60.7766 45.5757 64.8447 47.5489 67.5 50.6426C70.1553 47.5489 74.2234 45.5757 78.4621 45.5757C85.9651 45.5757 91.8602 51.4465 91.8602 58.9738C91.8602 68.1576 83.5778 75.6849 71.0322 87.0612L67.5 90.2767Z" fill="#274472"/>
</svg>
