<svg width="33" height="31" viewBox="0 0 33 31" fill="none" xmlns="http://www.w3.org/2000/svg">
<path d="M12.375 28.5313H8.25C7.7732 28.5515 7.29708 28.4776 6.84889 28.3137C6.4007 28.1498 5.98923 27.8991 5.63802 27.576C5.28681 27.2529 5.00276 26.8637 4.80213 26.4307C4.60149 25.9977 4.4882 25.5293 4.46875 25.0525V7.94751C4.4882 7.47068 4.60149 7.00237 4.80213 6.56936C5.00276 6.13636 5.28681 5.74717 5.63802 5.42406C5.98923 5.10094 6.4007 4.85026 6.84889 4.68634C7.29708 4.52242 7.7732 4.44848 8.25 4.46876H12.375C12.6485 4.46876 12.9108 4.57741 13.1042 4.77081C13.2976 4.96421 13.4062 5.22651 13.4062 5.50001C13.4062 5.77352 13.2976 6.03582 13.1042 6.22922C12.9108 6.42262 12.6485 6.53126 12.375 6.53126H8.25C7.84173 6.49576 7.43545 6.61877 7.11544 6.87478C6.79543 7.13079 6.58624 7.50015 6.53125 7.90626V25.0525C6.58624 25.4586 6.79543 25.828 7.11544 26.084C7.43545 26.34 7.84173 26.463 8.25 26.4275H12.375C12.6485 26.4275 12.9108 26.5362 13.1042 26.7296C13.2976 26.923 13.4062 27.1853 13.4062 27.4588C13.4062 27.7323 13.2976 27.9946 13.1042 28.188C12.9108 28.3814 12.6485 28.49 12.375 28.49V28.5313ZM22 23.0313C21.8645 23.0319 21.7303 23.0055 21.6051 22.9535C21.48 22.9016 21.3665 22.8252 21.2713 22.7288C21.0781 22.5354 20.9697 22.2733 20.9697 22C20.9697 21.7267 21.0781 21.4646 21.2713 21.2713L26.0425 16.5L21.2713 11.7288C21.1699 11.6344 21.0887 11.5205 21.0323 11.394C20.9759 11.2675 20.9456 11.1309 20.9432 10.9925C20.9407 10.854 20.9662 10.7165 21.0181 10.5881C21.0699 10.4597 21.1471 10.343 21.2451 10.2451C21.343 10.1472 21.4596 10.07 21.5881 10.0181C21.7165 9.96623 21.854 9.94076 21.9925 9.9432C22.1309 9.94564 22.2675 9.97595 22.394 10.0323C22.5205 10.0887 22.6343 10.1699 22.7288 10.2713L28.2288 15.7713C28.4219 15.9646 28.5303 16.2267 28.5303 16.5C28.5303 16.7733 28.4219 17.0354 28.2288 17.2288L22.7288 22.7288C22.6335 22.8252 22.52 22.9016 22.3949 22.9535C22.2697 23.0055 22.1355 23.0319 22 23.0313Z" fill="#274472"/>
<path d="M27.5 17.5312H12.375C12.1015 17.5312 11.8392 17.4226 11.6458 17.2292C11.4524 17.0358 11.3438 16.7735 11.3438 16.5C11.3438 16.2265 11.4524 15.9642 11.6458 15.7708C11.8392 15.5774 12.1015 15.4688 12.375 15.4688H27.5C27.7735 15.4688 28.0358 15.5774 28.2292 15.7708C28.4226 15.9642 28.5312 16.2265 28.5312 16.5C28.5312 16.7735 28.4226 17.0358 28.2292 17.2292C28.0358 17.4226 27.7735 17.5312 27.5 17.5312Z" fill="#274472"/>
</svg>
